<svg xmlns="http://www.w3.org/2000/svg" viewBox="0 0 512 512" role="img" aria-labelledby="logoTitle logoDesc">
  <title id="logoTitle">Posto dos Componentes</title>
  <desc id="logoDesc">Logo vetorial do Posto dos Componentes com fundo branco.</desc>
  <defs>
    <path id="topText" d="M 114 254 A 142 142 0 0 1 398 254" />
    <path id="topSubText" d="M 145 246 A 111 111 0 0 1 367 246" />
    <path id="bottomText" d="M 114 287 A 142 142 0 0 0 398 287" />
    <path id="bottomSubText" d="M 145 296 A 111 111 0 0 0 367 296" />
    <linearGradient id="gold" x1="118" x2="394" y1="116" y2="396" gradientUnits="userSpaceOnUse">
      <stop offset="0" stop-color="#ffd43a" />
      <stop offset="1" stop-color="#f6b900" />
    </linearGradient>
  </defs>

  <rect width="512" height="512" rx="38" fill="#fffdf6" />
  <circle cx="256" cy="256" r="207" fill="url(#gold)" />
  <circle cx="256" cy="256" r="198" fill="none" stroke="#060606" stroke-width="6" />
  <circle cx="256" cy="256" r="176" fill="none" stroke="#060606" stroke-width="5" />
  <circle cx="256" cy="256" r="105" fill="#060606" />

  <rect x="179" y="205" width="154" height="104" fill="none" stroke="#f6c300" stroke-width="4" />
  <path
    fill="#f6c300"
    d="M258 325c37-13 65-44 69-82 3-28-11-53-39-76 5 23 0 40-13 46-10 4-23 0-31-11-15-21-9-56 18-88-42 25-58 71-46 108 6 18 0 33-14 36-15 3-27-12-22-35-28 26-35 64-18 88 19 27 58 33 96 14Z"
  />
  <path
    fill="#ffd43a"
    d="M214 323c23-9 38-30 34-55-3-17-14-31-29-41 3 18-5 30-18 28-12-2-18-17-10-37-25 18-34 45-25 68 8 21 25 34 48 37Z"
    opacity=".94"
  />

  <g fill="#060606" font-family="Arial Black, Arial, sans-serif" font-weight="900">
    <text font-size="29" letter-spacing="8">
      <textPath href="#topText" startOffset="50%" text-anchor="middle">POSTO DOS</textPath>
    </text>
    <text font-size="22" letter-spacing="4.8">
      <textPath href="#topSubText" startOffset="50%" text-anchor="middle">COMPONENTES</textPath>
    </text>
    <text font-size="29" letter-spacing="8">
      <textPath href="#bottomText" startOffset="50%" text-anchor="middle">POSTO DOS</textPath>
    </text>
    <text font-size="22" letter-spacing="4.8">
      <textPath href="#bottomSubText" startOffset="50%" text-anchor="middle">COMPONENTES</textPath>
    </text>
  </g>
</svg>
